<svg width="41" height="41" viewBox="0 0 41 41" fill="none" xmlns="http://www.w3.org/2000/svg">
<circle cx="20.2303" cy="20.2303" r="19.7303" stroke="white"/>
<g clip-path="url(#clip0_1_315)">
<path d="M27.329 23.4919C26.228 23.4919 25.147 23.3197 24.1226 22.9812C23.6119 22.807 23.0304 22.9422 22.6972 23.2817L20.6753 24.808C18.3304 23.5563 16.886 22.1124 15.6514 19.7851L17.1328 17.8159C17.5177 17.4315 17.6558 16.87 17.4904 16.3432C17.1504 15.3134 16.9777 14.2329 16.9777 13.1315C16.9777 12.3358 16.3304 11.6885 15.5348 11.6885H12.2323C11.4368 11.6885 10.7894 12.3358 10.7894 13.1314C10.7894 22.2514 18.209 29.6709 27.329 29.6709C28.1246 29.6709 28.7719 29.0236 28.7719 28.228V24.9348C28.7719 24.1392 28.1246 23.4919 27.329 23.4919ZM27.7729 28.228C27.7729 28.4729 27.5738 28.6719 27.329 28.6719C18.7597 28.6719 11.7885 21.7007 11.7885 13.1314C11.7885 12.8866 11.9875 12.6875 12.2324 12.6875H15.5348C15.7797 12.6875 15.9787 12.8866 15.9787 13.1314C15.9787 14.3397 16.1685 15.5256 16.5397 16.649C16.5914 16.8149 16.5494 16.9866 16.3816 17.1612L14.6646 19.4353C14.5494 19.588 14.5314 19.7924 14.6177 19.9626C16.0192 22.7172 17.7221 24.4202 20.4963 25.8417C20.665 25.9299 20.8719 25.9114 21.0251 25.7958L23.3514 24.0334C23.4689 23.9158 23.6451 23.8739 23.8041 23.928C24.9353 24.3017 26.1212 24.491 27.329 24.491C27.5738 24.491 27.7729 24.69 27.7729 24.9348V28.228Z" fill="white"/>
</g>
<defs>
<clipPath id="clip0_1_315">
<rect width="17.9825" height="17.9825" fill="white" transform="translate(10.7894 11.6885)"/>
</clipPath>
</defs>
</svg>
